<svg xmlns="http://www.w3.org/2000/svg" version="1.1" xmlns:xlink="http://www.w3.org/1999/xlink" xmlns:svgjs="http://svgjs.dev/svgjs" width="1440" height="560" preserveAspectRatio="none" viewBox="0 0 1440 560"><g mask="url(&quot;#SvgjsMask1024&quot;)" fill="none"><rect width="1440" height="560" x="0" y="0" fill="rgba(107, 149, 255, 1)"></rect><path d="M1560 560L0 560 L0 420.09Q-9.4 290.69, 120 281.29Q207.07 248.36, 240 335.43Q269.22 292.65, 312 321.87Q414.29 304.16, 432 406.46Q452.14 354.6, 504 374.74Q543.16 293.9, 624 333.06Q714.75 303.81, 744 394.56Q827.62 358.18, 864 441.79Q884.75 390.54, 936 411.29Q941.67 344.96, 1008 350.62Q1051.35 273.97, 1128 317.31Q1171.58 240.88, 1248 284.46Q1333.39 249.85, 1368 335.24Q1443.13 338.38, 1440 413.51Q1439.88 293.39, 1560 293.28z" fill="rgba(21, 117, 33, 1)"></path><path d="M1512 560L0 560 L0 586.5Q28.19 494.69, 120 522.88Q197.33 480.21, 240 557.54Q291.61 537.14, 312 588.75Q322.29 527.04, 384 537.32Q413.6 494.92, 456 524.52Q505.58 454.1, 576 503.68Q634.4 490.08, 648 548.48Q692.47 472.95, 768 517.43Q869.37 498.79, 888 600.16Q929.12 569.28, 960 610.4Q1003.68 534.08, 1080 577.75Q1128.54 506.29, 1200 554.82Q1215.92 450.75, 1320 466.67Q1365.18 391.85, 1440 437.03Q1496.18 421.21, 1512 477.4z" fill="rgba(4, 68, 25, 1)"></path></g><defs><mask id="SvgjsMask1024"><rect width="1440" height="560" fill="#ffffff"></rect></mask></defs></svg>