<svg xmlns="http://www.w3.org/2000/svg" version="1.1" xmlns:xlink="http://www.w3.org/1999/xlink" xmlns:svgjs="http://svgjs.dev/svgjs" width="1440" height="560" preserveAspectRatio="none" viewBox="0 0 1440 560"><g mask="url(&quot;#SvgjsMask1003&quot;)" fill="none"><rect width="1440" height="560" x="0" y="0" fill="rgba(188, 169, 234, 1)"></rect><path d="M1536 560L0 560 L0 309.83Q33.19 271.02, 72 304.22Q140.65 300.87, 144 369.52Q153.19 306.71, 216 315.9Q243.25 271.15, 288 298.41Q350.32 288.73, 360 351.05Q444.51 315.56, 480 400.08Q523.39 371.48, 552 414.87Q553.08 343.95, 624 345.03Q653.51 302.54, 696 332.05Q788.42 304.48, 816 396.9Q871.63 380.53, 888 436.17Q916.4 392.58, 960 420.98Q989.47 378.45, 1032 407.91Q1074.98 330.89, 1152 373.88Q1156.54 306.42, 1224 310.96Q1273.43 240.39, 1344 289.83Q1407.89 281.73, 1416 345.62Q1454.11 263.73, 1536 301.83z" fill="rgba(116, 117, 229, 1)"></path><path d="M1488 560L0 560 L0 568.94Q-18.07 478.87, 72 460.8Q122.24 391.04, 192 441.28Q294.88 424.16, 312 527.04Q332 475.04, 384 495.04Q436.36 427.4, 504 479.76Q522.47 426.23, 576 444.7Q601.5 398.2, 648 423.71Q740.72 444.43, 720 537.15Q798.51 495.66, 840 574.17Q886.51 500.68, 960 547.2Q937.21 452.41, 1032 429.61Q1112.55 390.16, 1152 470.71Q1200.74 447.44, 1224 496.18Q1319.66 519.84, 1296 615.5Q1250.14 497.64, 1368 451.78Q1471.12 434.9, 1488 538.02z" fill="rgba(255, 151, 215, 1)"></path></g><defs><mask id="SvgjsMask1003"><rect width="1440" height="560" fill="#ffffff"></rect></mask></defs></svg>