<svg xmlns="http://www.w3.org/2000/svg" version="1.1" xmlns:xlink="http://www.w3.org/1999/xlink" xmlns:svgjs="http://svgjs.dev/svgjs" width="1440" height="560" preserveAspectRatio="none" viewBox="0 0 1440 560"><g mask="url(&quot;#SvgjsMask1029&quot;)" fill="none"><rect width="1440" height="560" x="0" y="0" fill="rgba(255, 176, 45, 1)"></rect><path d="M1560 560L0 560 L0 422.48Q-1.34 301.14, 120 299.81Q150.8 258.61, 192 289.4Q256.43 281.82, 264 346.25Q342.89 353.14, 336 432.04Q378.89 402.93, 408 445.82Q413.66 331.48, 528 337.14Q546.86 284, 600 302.85Q667.4 250.25, 720 317.65Q785.02 310.67, 792 375.69Q878.02 389.71, 864 475.73Q834.8 326.53, 984 297.34Q1012.54 253.88, 1056 282.42Q1118.82 273.24, 1128 336.06Q1176.16 264.22, 1248 312.38Q1348.99 293.38, 1368 394.37Q1384.81 339.18, 1440 355.99Q1471.67 267.66, 1560 299.34z" fill="rgba(236, 70, 143, 1)"></path><path d="M1464 560L0 560 L0 475.76Q53.34 457.1, 72 510.43Q84.38 450.81, 144 463.19Q189.18 436.37, 216 481.54Q311.96 457.5, 336 553.47Q380.44 525.91, 408 570.36Q415.35 457.71, 528 465.05Q542.55 407.6, 600 422.15Q704.97 407.12, 720 512.09Q802.36 474.45, 840 556.81Q841.06 485.87, 912 486.93Q959 413.93, 1032 460.93Q1125.13 434.06, 1152 527.19Q1208.68 511.88, 1224 568.56Q1230.27 454.82, 1344 461.09Q1392.76 389.85, 1464 438.6z" fill="rgba(255, 151, 215, 1)"></path></g><defs><mask id="SvgjsMask1029"><rect width="1440" height="560" fill="#ffffff"></rect></mask></defs></svg>